<svg xmlns="http://www.w3.org/2000/svg" viewBox="0 0 669.29 117.6"><defs><style>.cls-1{fill:#00a651;}.cls-2{fill:#231f20;}</style></defs><g id="Layer_2" data-name="Layer 2"><g id="Layer_1-2" data-name="Layer 1"><path class="cls-1" d="M399.39,56.67s.95-31.77,5.69-44.35C409.72,0,418.89,0,418.89,0h-39s8,0,13.5,12.32S399.39,56.67,399.39,56.67Z"/><path class="cls-1" d="M418.89,115.6h-19.5V74.45c0,3.6.21,10.06.92,13a43,43,0,0,0,7.41,17C410.9,108.63,411.36,109.57,418.89,115.6Z"/><path class="cls-1" d="M350.56,92.5c-2.06-9.25-.94-16.83-.94-27.18V51.21c0-14.86.38-27.8.38-35.74,0-.77-.06-6.52,4.09-10.67A15.77,15.77,0,0,1,364.29,0L321.44,0s.15.17,1.6,1.6c3.9,3.86,4.55,8.78,4.55,13.7,0,10.89.38,21.18.38,35.89V78.52c0,27.34,16.06,37.08,27.78,37.08,11.21,0,15.87-4.45,17.67-5.5C363.42,110.33,352.81,102.61,350.56,92.5Z"/><path class="cls-2" d="M548.19,106.55v-.08a8.28,8.28,0,0,1-1.86,1.68,2.87,2.87,0,0,1-1.36.31,2,2,0,0,1-1.6-1.06,4.48,4.48,0,0,1-.73-2.59V70.65q0-12.54-7.31-17.23T517,48.81q-10.22,0-17.2,4.74a14.75,14.75,0,0,0-7,12.85v.08c0,3,.87,5.34,2.62,6.94a9,9,0,0,0,6.33,2.4,8.19,8.19,0,0,0,5.64-2.17,7.82,7.82,0,0,0,2.43-6.16v0s0,0,0,0a8.32,8.32,0,0,0-.54-3,10.43,10.43,0,0,0-1.42-2.58l-.75-1a5.37,5.37,0,0,1-.76-1.17,3.14,3.14,0,0,1-.25-1.34,4.15,4.15,0,0,1,2.23-3.5A10.55,10.55,0,0,1,514,53.44c4.11,0,7,1,8.6,3s2.42,5.08,2.42,9.25L525,76a156.18,156.18,0,0,0-17.7,6.62l-.07,0-1.25.58a56.45,56.45,0,0,0-7.2,3.92q-8.39,5.58-8.38,15.11v.08q0,7.8,4.6,11.49a15.49,15.49,0,0,0,9.89,3.69A23.2,23.2,0,0,0,513,116a30,30,0,0,0,12.09-8.28,14.63,14.63,0,0,0,2.21,6.14q2.64,3.66,8.38,3.66a15.31,15.31,0,0,0,6.11-1.24,3.89,3.89,0,0,0,.62-.35c5.41-2.44,5.78-8.57,5.81-9.36Zm-23.32-5.13a25.82,25.82,0,0,1-3.59,3.87,9.45,9.45,0,0,1-5.86,2.07,5.5,5.5,0,0,1-4.31-2.38q-1.92-2.37-1.92-7a14.36,14.36,0,0,1,.08-1.48c0-.23,0-.46.07-.7A15.59,15.59,0,0,1,515.8,85.2a25.81,25.81,0,0,1,9.07-4.35Z"/><path class="cls-2" d="M446.84,20.12H421.89s6.87,0,6.87,11.58v71.84c0,11.64-6.87,11.92-6.87,11.92H453s-6-.28-6-11.36V66.35C447,65.52,446.84,20.12,446.84,20.12Z"/><path class="cls-2" d="M594.56,53.05q6,4.34,6,11.16a9.25,9.25,0,0,1-2.36,6.34,7.65,7.65,0,0,1-6,2.68A7.43,7.43,0,0,1,587.85,72c-2.31-1.46-3.47-4.13-3.47-8,0-.41,0-1,.07-1.82s.06-1.67.06-2.58q0-3.72-1.58-5.1a5.6,5.6,0,0,0-3.71-1.38q-6,0-8.51,7.2a49.83,49.83,0,0,0-2.52,16.5Q568.19,90,573,99c3.19,6,7.64,7.82,12.92,9,7.26,1.56,16.38-5.37,16.38-5.37q-6.3,9.57-14.75,13.16A24.5,24.5,0,0,1,578,117.6a24.93,24.93,0,0,1-20.29-9.72q-7.87-9.7-7.88-23.69,0-14.75,8.35-25.11t22.28-10.37A23.27,23.27,0,0,1,594.56,53.05Z"/><path class="cls-2" d="M608.36,103.54V31.63c0-11.51-6.24-11.51-6.24-11.51h24.19V80.88l16.39-18a11.62,11.62,0,0,0,2.08-3,6.2,6.2,0,0,0,.63-2.24c0-7.17-7.63-7.17-7.63-7.17h27.66l-.05,0a35.85,35.85,0,0,0-13.31,9.67l-1,1.13-10,11.09,28.23,43.05H639.17a5.73,5.73,0,0,0,5.35-6.06,5.15,5.15,0,0,0-.53-1.89,41.28,41.28,0,0,0-2.62-4.45L629.15,84.12l-2.84,3.44v16c0,11.64,6.56,11.92,6.56,11.92H602.12S608.36,115.18,608.36,103.54Z"/><path class="cls-2" d="M458.31,115.46h30.3s-6.42,0-6.42-11.92V69.65q0-11.36-4.85-16.08a16.91,16.91,0,0,0-12.29-4.72,20.67,20.67,0,0,0-9.55,2.28c-1.84,1-3.27,2.67-5.18,5.28a12.71,12.71,0,0,0-1.63,3.6c2.67-2.22,7.18-1.94,8.54-1.94a6.87,6.87,0,0,1,6.18,4.63,22.22,22.22,0,0,1,.88,7.23V104.1C464.29,115.18,458.31,115.46,458.31,115.46Z"/><path class="cls-2" d="M223.28,104.63l.12-4.13V62.13c0-11.57-6.87-11.57-6.87-11.57H241V61.65a49.67,49.67,0,0,1,8.15-9.3,14,14,0,0,1,9.35-3.44,10.58,10.58,0,0,1,7.16,2.79q3.19,2.79,3.19,8.16a10.32,10.32,0,0,1-2.24,6.82,7.26,7.26,0,0,1-5.84,2.69q-4.11,0-7.11-4.21t-4.2-4.2q-2.58,0-5.21,3.48t-2.62,10v26.71c0,1.28.14,2.42.14,3.43,0,11,9.12,11,9.12,11H216.53S223.28,115.52,223.28,104.63Z"/><path class="cls-2" d="M276.52,57.9q7.92-9,19.08-9a21.55,21.55,0,0,1,12,3.65,23.81,23.81,0,0,1,8.64,10.12,41.84,41.84,0,0,1,3.16,12.68,51.13,51.13,0,0,1,.44,5.58h-33a55.45,55.45,0,0,0,2.53,14.67q3.78,11.64,13.32,11.64c3,0,4.89-.47,9.18-2.4,3.13-1.68,8.49-5,8.49-5q-6,10.75-13.87,15a24.88,24.88,0,0,1-11.74,2.69q-9.52,0-17.85-8.2T268.6,83.14Q268.6,66.88,276.52,57.9ZM304,75.7q-.13-12.47-1.77-17.42t-6.58-5q-5.06,0-6.92,5.71T286.56,75.7Z"/><path class="cls-2" d="M113.23,20.26h-25s6.87,0,6.87,11.57v71.85c0,11.64-6.87,11.92-6.87,11.92h31.07s-6-.28-6-11.37V66.48C113.35,65.66,113.23,20.26,113.23,20.26Z"/><path class="cls-2" d="M214.71,106.65v-.09a8.69,8.69,0,0,1-1.86,1.69,2.86,2.86,0,0,1-1.35.31,2,2,0,0,1-1.61-1.07,4.5,4.5,0,0,1-.73-2.58V70.74q0-12.52-7.3-17.22t-18.34-4.61q-10.22,0-17.2,4.74a14.78,14.78,0,0,0-7,12.85s0,0,0,0v0c0,3,.88,5.33,2.62,6.94a9,9,0,0,0,6.33,2.4,8.19,8.19,0,0,0,5.64-2.17,7.83,7.83,0,0,0,2.43-6.16v-.08a8.32,8.32,0,0,0-.54-3,10.43,10.43,0,0,0-1.42-2.58l-.75-1a5.37,5.37,0,0,1-.76-1.17,3.48,3.48,0,0,1-.25-1.34,4.14,4.14,0,0,1,2.24-3.5,10.51,10.51,0,0,1,5.7-1.42q6.16,0,8.6,3t2.42,9.25l-.05,10.3a159,159,0,0,0-17.7,6.61l-.07,0-1.25.59a55.23,55.23,0,0,0-7.2,3.92q-8.38,5.58-8.38,15.11v.08q0,7.8,4.6,11.49a15.51,15.51,0,0,0,9.89,3.69,23.16,23.16,0,0,0,8.07-1.52,30,30,0,0,0,12.09-8.28,14.77,14.77,0,0,0,2.21,6.14q2.64,3.66,8.38,3.66a15.48,15.48,0,0,0,6.11-1.24,3.31,3.31,0,0,0,.62-.36c5.41-2.43,5.78-8.56,5.81-9.35h0Zm-23.31-5.13a26.33,26.33,0,0,1-3.6,3.87,9.45,9.45,0,0,1-5.86,2.07,5.5,5.5,0,0,1-4.31-2.38c-1.28-1.58-1.91-3.9-1.92-7,0-.51,0-1,.08-1.49,0-.23,0-.45.07-.7a15.63,15.63,0,0,1,6.46-10.63A25.85,25.85,0,0,1,191.4,81Z"/><path class="cls-2" d="M124.69,115.6H155s-6.43,0-6.43-11.92V69.79q0-11.37-4.85-16.08A16.87,16.87,0,0,0,131.44,49a20.67,20.67,0,0,0-9.55,2.28c-1.85,1-3.28,2.67-5.19,5.27-.47.92-1.52,2.54-1.62,3.61,2.67-2.22,7.18-1.95,8.53-1.95a6.89,6.89,0,0,1,6.19,4.63,22.33,22.33,0,0,1,.88,7.24v34.16C130.68,115.32,124.69,115.6,124.69,115.6Z"/></g><g id="Layer_4_copy" data-name="Layer 4 copy"><path class="cls-2" d="M89.27,79.29c0-15.27-10.4-31.7-30.22-33.67,0,0-12.34-1.94-16.26-2.7-4.57-1-18.26-3.25-26.85-12-3.27-3.34-8.06-12.38-2-20.73C4.24,18.36,0,31.16,0,37.11c-.07,16.92,10.81,29.2,30,33l12.72,3c7.56,1.72,20.16,6,26.55,13.05,7,8,4.57,18.87,1.73,22.08,4.34-2.68,5.62-4.11,9.15-7.75C85.76,94.59,89.27,88.64,89.27,79.29Z"/><path class="cls-2" d="M0,69.55c0-.52,0,2.07.1,3.09.06.86.14,1.71.24,2.56a46,46,0,0,0,40.58,40.11c1.43.16,2.77.25,4.24.28H0"/><path class="cls-2" d="M40.86.14a76.62,76.62,0,0,1,8.62.91A40.89,40.89,0,0,1,80.1,29.66a40.21,40.21,0,0,1,1.51,8.9c0,.79.07,1.6.07,2.4V.14"/></g></g></svg>