<svg width="344" height="234" viewBox="0 0 344 234" fill="none" xmlns="http://www.w3.org/2000/svg">
<g clip-path="url(#clip0_437_216)">
<path d="M78.0002 172.13C78.0002 172.13 79.0002 140.36 83.6902 127.78C88.3302 115.46 97.4902 115.46 97.4902 115.46H58.4902C58.4902 115.46 66.4902 115.46 71.9902 127.78C77.4902 140.1 78.0002 172.13 78.0002 172.13Z" fill="#00A651"/>
<path d="M97.45 231.06H78V189.91C78 193.51 78.21 199.97 78.92 202.91C80.1149 209.049 82.6408 214.852 86.32 219.91C89.47 224.09 89.93 225 97.45 231.06Z" fill="#00A651"/>
<path d="M29.13 208C27.07 198.76 28.18 191.17 28.18 180.82V166.67C28.18 151.81 28.57 138.87 28.57 130.93C28.57 130.16 28.51 124.41 32.66 120.26C35.3483 117.458 38.9775 115.748 42.85 115.46L0 115.48C0 115.48 0.16 115.65 1.6 117.08C5.5 120.94 6.15 125.86 6.15 130.78C6.15 141.67 6.54 151.96 6.54 166.67V194C6.54 221.33 22.6 231.07 34.31 231.07C45.53 231.07 50.19 226.63 51.98 225.58C42 225.79 31.38 218.07 29.13 208Z" fill="#00A651"/>
<path d="M222.001 222V221.92C221.466 222.57 220.839 223.14 220.141 223.61C219.723 223.822 219.259 223.929 218.791 223.92C218.454 223.892 218.129 223.78 217.848 223.592C217.566 223.405 217.337 223.15 217.181 222.85C216.684 222.083 216.433 221.183 216.461 220.27V186.11C216.461 177.75 214.024 172.01 209.151 168.89C204.277 165.77 198.164 164.233 190.811 164.28C184.011 164.28 178.277 165.86 173.611 169.02C171.43 170.368 169.637 172.261 168.41 174.513C167.183 176.764 166.563 179.296 166.611 181.86V181.86C166.611 184.86 167.491 187.2 169.231 188.81C170.948 190.403 173.219 191.264 175.561 191.21C177.649 191.232 179.666 190.456 181.201 189.04C182.032 188.252 182.68 187.291 183.1 186.225C183.52 185.159 183.701 184.013 183.631 182.87V182.79C183.637 181.765 183.454 180.748 183.091 179.79C182.74 178.865 182.262 177.993 181.671 177.2L180.921 176.2C180.618 175.845 180.362 175.451 180.161 175.03C179.99 174.604 179.905 174.149 179.911 173.69C179.943 172.96 180.167 172.251 180.56 171.635C180.953 171.018 181.502 170.517 182.151 170.18C183.878 169.178 185.855 168.689 187.851 168.77C191.971 168.77 194.851 169.77 196.451 171.77C198.051 173.77 198.871 176.85 198.881 181.02L198.821 191.31C192.795 193.163 186.884 195.374 181.121 197.93H181.051L179.801 198.52C177.309 199.647 174.903 200.954 172.601 202.43C167.014 206.157 164.221 211.197 164.221 217.55V217.63C164.221 222.817 165.754 226.647 168.821 229.12C171.587 231.464 175.085 232.769 178.711 232.81C181.47 232.788 184.203 232.273 186.781 231.29C191.434 229.568 195.59 226.724 198.881 223.01C199.143 225.196 199.895 227.295 201.081 229.15C202.841 231.59 205.634 232.81 209.461 232.81C211.56 232.815 213.639 232.393 215.571 231.57C215.79 231.473 215.998 231.352 216.191 231.21C221.601 228.77 221.981 222.65 222.001 221.86V222ZM198.691 216.88C197.624 218.287 196.417 219.584 195.091 220.75C193.427 222.082 191.362 222.812 189.231 222.82C188.377 222.783 187.544 222.549 186.796 222.136C186.048 221.723 185.406 221.143 184.921 220.44C183.641 218.86 183.011 216.54 183.001 213.44C183.001 212.93 183.001 212.44 183.081 211.95C183.081 211.72 183.081 211.49 183.151 211.25C183.443 209.13 184.166 207.093 185.278 205.265C186.389 203.436 187.864 201.855 189.611 200.62C192.323 198.589 195.408 197.111 198.691 196.27V216.88Z" fill="#231F20"/>
<path d="M120.69 135.59H95.6904C95.6904 135.59 102.56 135.59 102.56 147.16V219C102.56 230.63 95.6904 230.92 95.6904 230.92H126.8C126.8 230.92 120.8 230.63 120.8 219.55V181.81C120.82 181 120.69 135.59 120.69 135.59Z" fill="#231F20"/>
<path d="M268.411 168.52C272.411 171.407 274.411 175.127 274.411 179.68C274.433 182.015 273.572 184.273 272.001 186C271.265 186.868 270.344 187.56 269.306 188.025C268.268 188.491 267.138 188.718 266.001 188.69C264.477 188.726 262.98 188.293 261.711 187.45C259.404 185.977 258.251 183.31 258.251 179.45C258.251 179.043 258.271 178.433 258.311 177.62C258.351 176.807 258.371 175.947 258.371 175.04C258.371 172.56 257.847 170.86 256.801 169.94C255.766 169.051 254.445 168.564 253.081 168.57C249.081 168.57 246.244 170.967 244.571 175.76C242.809 181.079 241.957 186.657 242.051 192.26C242.051 201.08 243.647 208.473 246.841 214.44C250.031 220.44 254.491 222.27 259.761 223.44C267.031 225 276.141 218.07 276.141 218.07C271.941 224.45 267.027 228.833 261.401 231.22C258.382 232.466 255.146 233.098 251.881 233.08C247.974 233.165 244.103 232.33 240.578 230.643C237.054 228.957 233.975 226.465 231.591 223.37C226.344 216.89 223.721 208.99 223.721 199.67C223.721 189.85 226.504 181.48 232.071 174.56C237.637 167.64 245.061 164.187 254.341 164.2C259.375 164.075 264.314 165.592 268.411 168.52Z" fill="#231F20"/>
<path d="M282.211 219V147.1C282.211 135.59 275.971 135.59 275.971 135.59H300.171V196.35L316.551 178.35C317.395 177.464 318.097 176.452 318.631 175.35C318.985 174.652 319.199 173.891 319.261 173.11C319.261 165.95 311.631 165.95 311.631 165.95H339.291H339.241C334.117 168.098 329.561 171.405 325.931 175.61C325.641 175.95 325.321 176.32 324.931 176.74L314.931 187.83L343.161 230.89H313.001C314.513 230.792 315.926 230.1 316.93 228.965C317.934 227.829 318.448 226.343 318.361 224.83C318.306 224.167 318.123 223.522 317.821 222.93C317.039 221.4 316.167 219.917 315.211 218.49L303.001 199.58L300.171 203V219C300.171 230.63 306.721 230.92 306.721 230.92H276.001C276.001 230.92 282.211 230.64 282.211 219Z" fill="#231F20"/>
<path d="M132.16 230.93H162.47C162.47 230.93 156 230.91 156 219V185.12C156 177.54 154.383 172.177 151.15 169.03C149.52 167.464 147.592 166.241 145.481 165.432C143.371 164.623 141.119 164.245 138.86 164.32C135.54 164.303 132.264 165.085 129.31 166.6C127.47 167.6 126.04 169.26 124.13 171.87C123.408 172.984 122.858 174.201 122.5 175.48C125.17 173.26 129.68 173.53 131.04 173.53C132.415 173.594 133.74 174.069 134.842 174.895C135.944 175.72 136.773 176.858 137.22 178.16C137.912 180.505 138.213 182.947 138.11 185.39V219.56C138.15 230.64 132.16 230.93 132.16 230.93Z" fill="#231F20"/>
<path d="M230.74 104.53L230.87 100.4V62C230.87 50.43 224 50.43 224 50.43H248.45V61.55C250.76 58.1188 253.495 54.994 256.59 52.25C259.178 49.992 262.506 48.7641 265.94 48.8C268.595 48.8011 271.153 49.7965 273.11 51.59C275.23 53.45 276.3 56.17 276.3 59.76C276.393 62.2297 275.595 64.6506 274.05 66.58C273.349 67.4466 272.457 68.1395 271.444 68.6044C270.431 69.0693 269.324 69.2937 268.21 69.26C265.483 69.26 263.117 67.86 261.11 65.06C259.103 62.26 257.703 60.86 256.91 60.86C255.177 60.86 253.44 62.02 251.7 64.34C249.96 66.66 249.087 69.9933 249.08 74.34V101C249.08 102.27 249.22 103.41 249.22 104.43C249.22 115.43 258.34 115.43 258.34 115.43H224C224 115.43 230.74 115.42 230.74 104.53Z" fill="#231F20"/>
<path d="M283 57.79C288.28 51.79 294.644 48.79 302.09 48.79C306.363 48.7942 310.539 50.0643 314.09 52.44C317.879 54.9241 320.88 58.4386 322.74 62.57C324.449 66.6054 325.512 70.8843 325.89 75.25C326.138 77.0973 326.285 78.9567 326.33 80.82H293.33C293.504 85.8047 294.351 90.743 295.85 95.5C298.377 103.26 302.82 107.14 309.18 107.14C312.18 107.14 314.06 106.67 318.36 104.74C321.49 103.06 326.85 99.74 326.85 99.74C322.85 106.9 318.224 111.9 312.97 114.74C309.339 116.58 305.311 117.501 301.24 117.42C294.887 117.42 288.934 114.69 283.38 109.23C277.827 103.77 275.057 95.0267 275.07 83C275.07 72.1867 277.714 63.7834 283 57.79ZM310.41 75.6C310.33 67.2934 309.74 61.4834 308.64 58.17C307.55 54.87 305.35 53.17 302.07 53.17C298.79 53.17 296.39 55.08 295.14 58.89C293.89 62.7 293.19 68.3 293 75.6H310.41Z" fill="#231F20"/>
<path d="M120.69 20.16H95.6904C95.6904 20.16 102.56 20.16 102.56 31.73V103.58C102.56 115.21 95.6904 115.5 95.6904 115.5H126.8C126.8 115.5 120.8 115.21 120.8 104.13V66.38C120.82 65.55 120.69 20.16 120.69 20.16Z" fill="#231F20"/>
<path d="M132.16 115.5H162.47C162.47 115.5 156.04 115.5 156.04 103.58V69.69C156.04 62.11 154.423 56.7467 151.19 53.6C149.56 52.0329 147.633 50.8079 145.522 49.9972C143.412 49.1866 141.16 48.8067 138.9 48.88C135.579 48.8662 132.304 49.6516 129.35 51.17C127.51 52.17 126.08 53.83 124.17 56.44C123.446 57.5534 122.897 58.7707 122.54 60.05C125.21 57.82 129.72 58.1 131.08 58.1C132.456 58.1635 133.78 58.6389 134.882 59.4645C135.984 60.2901 136.813 61.4278 137.26 62.73C137.952 65.0747 138.253 67.5175 138.15 69.96V104.13C138.15 115.21 132.16 115.5 132.16 115.5Z" fill="#231F20"/>
<path d="M222.17 106.54V106.46C221.636 107.107 221.013 107.676 220.32 108.15C219.898 108.359 219.432 108.465 218.96 108.46C218.623 108.432 218.299 108.32 218.018 108.132C217.736 107.945 217.506 107.69 217.35 107.39C216.854 106.623 216.603 105.723 216.63 104.81V70.64C216.63 62.28 214.194 56.54 209.32 53.42C204.447 50.3 198.34 48.76 191 48.8C184.2 48.8 178.467 50.38 173.8 53.54C171.619 54.89 169.826 56.7848 168.599 59.0379C167.371 61.291 166.752 63.8247 166.8 66.39V66.47C166.8 69.5033 167.67 71.8166 169.41 73.41C171.129 75.0094 173.404 75.8742 175.75 75.82C177.837 75.837 179.853 75.0614 181.39 73.65C182.218 72.8594 182.864 71.8978 183.282 70.8321C183.7 69.7665 183.88 68.6225 183.81 67.48V67.4C183.815 66.3762 183.636 65.36 183.28 64.4C182.934 63.4729 182.456 62.6007 181.86 61.81L181.1 60.81C180.802 60.453 180.55 60.0599 180.35 59.64C180.17 59.217 180.085 58.7595 180.1 58.3C180.128 57.5699 180.35 56.8604 180.741 56.2438C181.133 55.6272 181.681 55.1255 182.33 54.79C184.058 53.788 186.035 53.2989 188.03 53.38C192.15 53.38 195.017 54.38 196.63 56.38C198.25 58.38 199.06 61.46 199.06 65.63L199 76C192.974 77.8518 187.063 80.0624 181.3 82.62H181.23L179.97 83.21C177.482 84.3372 175.079 85.644 172.78 87.12C167.187 90.8466 164.394 95.8833 164.4 102.23V102.31C164.4 107.51 165.93 111.34 168.99 113.8C171.758 116.148 175.261 117.454 178.89 117.49C181.662 117.488 184.409 116.983 187 116C191.656 114.283 195.814 111.438 199.1 107.72C199.364 109.91 200.119 112.013 201.31 113.87C203.07 116.297 205.864 117.513 209.69 117.52C211.79 117.529 213.87 117.107 215.8 116.28C216.018 116.184 216.226 116.067 216.42 115.93C221.83 113.49 222.2 107.36 222.22 106.57L222.17 106.54ZM198.86 101.42C197.799 102.826 196.596 104.12 195.27 105.28C193.609 106.617 191.543 107.35 189.41 107.36C188.554 107.324 187.718 107.09 186.968 106.675C186.219 106.26 185.576 105.676 185.09 104.97C183.82 103.39 183.18 101.08 183.17 97.97C183.17 97.46 183.17 96.97 183.25 96.48C183.25 96.25 183.3 96.02 183.33 95.78C183.62 93.6596 184.343 91.6216 185.454 89.7928C186.566 87.964 188.042 86.3835 189.79 85.15C192.499 83.1191 195.581 81.6411 198.86 80.8V101.42Z" fill="#231F20"/>
<path d="M89.2703 79.15C89.2703 63.88 78.8703 47.45 59.0503 45.49C59.0503 45.49 46.7103 43.49 42.7903 42.78C38.2203 41.78 24.5303 39.53 15.9403 30.78C12.6703 27.45 7.88034 18.4 13.9403 10.06C4.24034 18.22 0.000335703 31 0.000335703 37C-0.0696643 53.89 10.8103 66.18 30.0003 70L42.7003 73C50.2603 74.72 62.8603 79 69.2503 86.06C76.2503 94.06 73.8203 104.92 70.9803 108.14C75.3203 105.45 76.6003 104.02 80.1303 100.39C85.7603 94.45 89.2703 88.51 89.2703 79.15Z" fill="#231F20"/>
<path d="M0 69.42C0 68.9 0 71.4901 0.1 72.5101C0.16 73.3701 0.24 74.22 0.34 75.07C1.60257 85.3473 6.29561 94.8979 13.6599 102.177C21.0241 109.456 30.6288 114.037 40.92 115.18C42.3279 115.341 43.743 115.431 45.16 115.45H0" fill="#231F20"/>
<path d="M40.8604 0C43.7486 0.140432 46.6265 0.444252 49.4804 0.91C56.6912 2.4748 63.3444 5.96117 68.735 10.9997C74.1256 16.0382 78.0528 22.4411 80.1003 29.53C80.9362 32.4272 81.4427 35.4093 81.6104 38.42C81.6104 39.22 81.6804 40.02 81.6804 40.83V0" fill="#231F20"/>
</g>
<defs>
<clipPath id="clip0_437_216">
<rect width="343.14" height="233.06" fill="white"/>
</clipPath>
</defs>
</svg>
