<svg xmlns="http://www.w3.org/2000/svg" viewBox="0 0 679.43 117.2"><defs><style>.cls-1{fill:#00a651;}.cls-2{fill:#231f20;}</style></defs><g id="Layer_2" data-name="Layer 2"><g id="Layer_4_copy" data-name="Layer 4 copy"><path class="cls-1" d="M351.66,92.05c-2.06-9.2-1-16.75-1-27V51c0-14.79.39-27.67.39-35.56,0-.77-.06-6.49,4.09-10.62C360,0,363.38,0,363.38,0L322.53,0s.16.17,1.6,1.59c3.9,3.85,4.55,8.74,4.55,13.64,0,10.83.39,21.07.39,35.71V78.14c0,27.21,16.06,36.9,27.77,36.9,11.22,0,15.88-4.42,17.67-5.47C364.51,109.79,353.91,102.11,351.66,92.05Z"/><path class="cls-1" d="M431.84,115.09H404.75s0-37,0-40.95c.83,6.8,4.53,19.56,10.14,27.05,2.85,4.55,8.79,10.31,16.73,13.8Z"/><path class="cls-1" d="M404.69,56.44s2.14-32.59,7.79-44.72C417.91.05,424.29.05,424.29.05h-39s6,0,11.4,11.67C402.4,24.07,404.69,56.44,404.69,56.44Z"/><path class="cls-2" d="M558.68,106.2v-.08a8.28,8.28,0,0,1-1.86,1.68,2.86,2.86,0,0,1-1.35.31,2,2,0,0,1-1.61-1.06,4.49,4.49,0,0,1-.72-2.57v-34q0-12.48-7.31-17.14t-18.34-4.59q-10.2,0-17.2,4.71a14.69,14.69,0,0,0-7,12.79v.08q0,4.52,2.61,6.91a9.07,9.07,0,0,0,6.33,2.39,8.19,8.19,0,0,0,5.64-2.16,7.78,7.78,0,0,0,2.43-6.14v-.08a8.25,8.25,0,0,0-.54-3,10.51,10.51,0,0,0-1.41-2.57l-.76-1a5.58,5.58,0,0,1-.76-1.16,3.31,3.31,0,0,1-.24-1.34,4.11,4.11,0,0,1,2.23-3.49,10.6,10.6,0,0,1,5.7-1.4c4.12,0,7,1,8.6,3s2.43,5.06,2.43,9.21l-.06,10.24a159.35,159.35,0,0,0-17.7,6.59l-.06,0-1.26.58a56,56,0,0,0-7.2,3.9q-8.37,5.57-8.38,15V102q0,7.75,4.6,11.43a15.57,15.57,0,0,0,9.9,3.67,23.13,23.13,0,0,0,8.06-1.51,30.06,30.06,0,0,0,12.1-8.24,14.63,14.63,0,0,0,2.2,6.11q2.65,3.65,8.38,3.64a15.52,15.52,0,0,0,6.12-1.23,3.81,3.81,0,0,0,.61-.35c5.42-2.43,5.79-8.53,5.81-9.31Zm-23.31-5.1a25.53,25.53,0,0,1-3.59,3.85,9.46,9.46,0,0,1-5.86,2.06,5.52,5.52,0,0,1-4.32-2.37q-1.9-2.36-1.92-6.92c0-.5,0-1,.08-1.48,0-.23,0-.45.07-.7A15.53,15.53,0,0,1,526.3,85a25.86,25.86,0,0,1,9.07-4.33Z"/><path class="cls-2" d="M457.53,20.2H432.58s6.87,0,6.87,11.52v71.5c0,11.57-6.87,11.85-6.87,11.85h31.07s-6-.28-6-11.31V66.2C457.66,65.37,457.53,20.2,457.53,20.2Z"/><path class="cls-2" d="M469,115.07h30.31s-6.43,0-6.43-11.85V69.49q0-11.31-4.85-16a16.94,16.94,0,0,0-12.29-4.69,17.68,17.68,0,0,0-9.86,2.84,29.79,29.79,0,0,0-5.13,4.29,14.8,14.8,0,0,0-1.36,4c2.67-2.21,7.17-1.93,8.53-1.93a6.87,6.87,0,0,1,6.19,4.6,22.37,22.37,0,0,1,.88,7.2v34C475,114.79,469,115.07,469,115.07Z"/><path class="cls-2" d="M604.75,53q6,4.32,6,11.1a9.23,9.23,0,0,1-2.36,6.31,7.7,7.7,0,0,1-6,2.67A7.51,7.51,0,0,1,598,71.82q-3.46-2.19-3.46-7.95c0-.41,0-1,.06-1.82s.06-1.66.06-2.57q0-3.7-1.57-5.07A5.6,5.6,0,0,0,589.41,53q-6,0-8.5,7.16a49.12,49.12,0,0,0-2.53,16.42q0,13.16,4.79,22.07c3.2,5.94,7.65,7.79,12.92,8.91,7.27,1.55,16.38-5.34,16.38-5.34q-6.3,9.52-14.74,13.09a25.9,25.9,0,0,1-29.8-7.82Q560,97.87,560.05,84q0-14.67,8.35-25t22.27-10.32A23.33,23.33,0,0,1,604.75,53Z"/><path class="cls-2" d="M618.5,103.21V31.65c0-11.45-6.24-11.45-6.24-11.45h24.2V80.66l16.38-17.89a11.34,11.34,0,0,0,2.08-3,5.91,5.91,0,0,0,.63-2.23c0-7.13-7.62-7.13-7.62-7.13h27.66l-.05,0a35.91,35.91,0,0,0-13.32,9.62c-.28.33-.61.7-1,1.12l-10,11,28.23,42.84H649.31a5.72,5.72,0,0,0,5.36-6,5,5,0,0,0-.54-1.88,40.2,40.2,0,0,0-2.61-4.42L639.29,83.88l-2.83,3.43v15.91c0,11.57,6.55,11.85,6.55,11.85H612.26S618.5,114.79,618.5,103.21Z"/><path class="cls-2" d="M226.37,104.3l.13-4.11V62c0-11.51-6.87-11.51-6.87-11.51h24.45v11a49.52,49.52,0,0,1,8.14-9.25,14.06,14.06,0,0,1,9.35-3.43,10.66,10.66,0,0,1,7.17,2.78c2.12,1.85,3.19,4.56,3.19,8.12a10.19,10.19,0,0,1-2.25,6.79,7.26,7.26,0,0,1-5.84,2.67q-4.09,0-7.1-4.18t-4.2-4.18q-2.59,0-5.21,3.46t-2.62,9.92V100.8c0,1.27.14,2.41.14,3.42,0,10.91,9.12,10.91,9.12,10.91H219.63S226.37,115.13,226.37,104.3Z"/><path class="cls-2" d="M278.61,57.79q7.92-9,19.09-8.95a21.61,21.61,0,0,1,12,3.64,23.68,23.68,0,0,1,8.65,10.07,41.43,41.43,0,0,1,3.15,12.62,50.69,50.69,0,0,1,.44,5.55H289a54.59,54.59,0,0,0,2.52,14.6q3.79,11.58,13.33,11.59c3,0,4.88-.47,9.18-2.39,3.13-1.67,8.49-5,8.49-5q-6,10.7-13.88,14.88a25,25,0,0,1-11.73,2.67q-9.53,0-17.86-8.16t-8.32-26Q270.7,66.74,278.61,57.79ZM306,75.51q-.12-12.41-1.77-17.34c-1.09-3.3-3.29-4.94-6.57-4.94s-5.68,1.9-6.93,5.69-1.95,9.32-2.12,16.59Z"/><path class="cls-2" d="M116.32,20.34H91.37s6.87,0,6.87,11.51v71.5c0,11.58-6.87,11.86-6.87,11.86h31.06s-6-.28-6-11.31V66.33C116.45,65.51,116.32,20.34,116.32,20.34Z"/><path class="cls-2" d="M127.79,115.21H158.1s-6.43,0-6.43-11.86V69.62q0-11.31-4.85-16a17,17,0,0,0-12.29-4.7,17.69,17.69,0,0,0-9.86,2.85,29.79,29.79,0,0,0-5.13,4.29,14.7,14.7,0,0,0-1.37,4c2.67-2.21,7.18-1.93,8.54-1.93a6.86,6.86,0,0,1,6.18,4.6,22.09,22.09,0,0,1,.88,7.2v34C133.77,114.93,127.79,115.21,127.79,115.21Z"/><path class="cls-2" d="M217.8,106.3v-.08A9.13,9.13,0,0,1,216,107.9a2.9,2.9,0,0,1-1.36.31,2,2,0,0,1-1.61-1.06,4.5,4.5,0,0,1-.72-2.58v-34q0-12.46-7.31-17.13t-18.34-4.6q-10.2,0-17.2,4.72a14.69,14.69,0,0,0-7,12.79v.08q0,4.51,2.61,6.9a9.06,9.06,0,0,0,6.34,2.4A8.23,8.23,0,0,0,177,73.57a7.82,7.82,0,0,0,2.42-6.14v-.08a8.46,8.46,0,0,0-.53-3,10.36,10.36,0,0,0-1.42-2.57l-.76-1a5.3,5.3,0,0,1-.75-1.17,3.07,3.07,0,0,1-.25-1.33A4.12,4.12,0,0,1,178,54.85a10.6,10.6,0,0,1,5.7-1.4q6.18,0,8.6,3t2.43,9.21l-.05,10.24a156.64,156.64,0,0,0-17.7,6.59l-.07,0c-.43.19-.85.38-1.26.58a56,56,0,0,0-7.2,3.9Q160,92.53,160,102v.08q0,7.77,4.6,11.44a15.63,15.63,0,0,0,9.9,3.67,23.13,23.13,0,0,0,8.06-1.51,30,30,0,0,0,12.1-8.24,14.48,14.48,0,0,0,2.21,6.11q2.64,3.64,8.38,3.64a15.51,15.51,0,0,0,6.11-1.23,3.66,3.66,0,0,0,.62-.36c5.41-2.42,5.78-8.52,5.8-9.31Zm-23.31-5.1a26.55,26.55,0,0,1-3.59,3.85,9.52,9.52,0,0,1-5.86,2.06,5.52,5.52,0,0,1-4.32-2.37q-1.91-2.35-1.92-6.92c0-.51,0-1,.08-1.48,0-.23.05-.46.08-.7a15.52,15.52,0,0,1,6.46-10.58,26,26,0,0,1,9.07-4.33Z"/><path class="cls-2" d="M89.27,79c0-15.2-10.4-31.55-30.22-33.51,0,0-12.34-1.93-16.26-2.69-4.57-1-18.26-3.23-26.85-12-3.27-3.31-8.06-12.32-2-20.62C4.24,18.37,0,31.11,0,37-.07,53.87,10.81,66.1,30,69.91l12.72,3c7.56,1.71,20.16,6,26.55,13,7,7.95,4.57,18.77,1.73,22,4.34-2.67,5.62-4.09,9.15-7.71C85.76,94.24,89.27,88.32,89.27,79Z"/><path class="cls-2" d="M.1,72.25c.06.85.14,1.1.24,1.94A53.06,53.06,0,0,0,3.9,86a45.3,45.3,0,0,0,26.19,25.55A88.69,88.69,0,0,0,41,115H.11"/><path class="cls-2" d="M46,.24a27.25,27.25,0,0,0,3.52.91A40.81,40.81,0,0,1,80.1,29.63c.82,2.83,1.34,3.82,1.51,5.46.09.79.07-34.85.07-34.85"/></g></g></svg>