<svg width="192" height="192" viewBox="0 0 192 192" fill="none" xmlns="http://www.w3.org/2000/svg">
<path d="M134.6 94.2267C134.6 94.2267 135.867 51.8667 142.187 35.0934C148.373 18.6667 160.6 18.6667 160.6 18.6667H108.6C108.6 18.6667 119.267 18.6667 126.6 35.0934C133.933 51.52 134.6 94.2267 134.6 94.2267Z" fill="#00A651"/>
<path d="M160.6 172.8H134.6V117.933C134.6 122.733 134.88 131.347 135.827 135.267C137.432 143.451 140.804 151.186 145.707 157.933C149.947 163.507 150.56 164.76 160.6 172.8Z" fill="#00A651"/>
<path d="M69.4932 142C66.7465 129.667 68.2398 119.56 68.2398 105.76V86.9467C68.2398 67.1334 68.7465 49.88 68.7465 39.2934C68.7465 38.2667 68.6665 30.6 74.1998 25.0667C77.7898 21.3306 82.6328 19.0515 87.7998 18.6667L30.6665 18.6667C30.6665 18.6667 30.8665 18.8934 32.7998 20.8C37.9998 25.9467 38.8665 32.5067 38.8665 39.0667C38.8665 53.5867 39.3732 67.3067 39.3732 86.9201V123.36C39.3732 159.813 60.7865 172.8 76.4132 172.8C91.3598 172.8 97.5732 166.867 99.9732 165.467C86.6398 165.773 72.4931 155.48 69.4932 142Z" fill="#00A651"/>
<path d="M134.6 94.2267C134.6 94.2267 135.867 51.8667 142.187 35.0934C148.373 18.6667 160.6 18.6667 160.6 18.6667H108.6C108.6 18.6667 119.267 18.6667 126.6 35.0934C133.933 51.52 134.6 94.2267 134.6 94.2267Z" fill="#00A651"/>
<path d="M160.6 172.8H134.6V117.933C134.6 122.733 134.88 131.347 135.827 135.267C137.432 143.451 140.804 151.186 145.707 157.933C149.947 163.507 150.56 164.76 160.6 172.8Z" fill="#00A651"/>
<path d="M69.4932 142C66.7465 129.667 68.2398 119.56 68.2398 105.76V86.9467C68.2398 67.1334 68.7465 49.88 68.7465 39.2934C68.7465 38.2667 68.6665 30.6 74.1998 25.0667C77.7898 21.3306 82.6328 19.0515 87.7998 18.6667L30.6665 18.6667C30.6665 18.6667 30.8665 18.8934 32.7998 20.8C37.9998 25.9467 38.8665 32.5067 38.8665 39.0667C38.8665 53.5867 39.3732 67.3067 39.3732 86.9201V123.36C39.3732 159.813 60.7865 172.8 76.4132 172.8C91.3598 172.8 97.5732 166.867 99.9732 165.467C86.6398 165.773 72.4931 155.48 69.4932 142Z" fill="#00A651"/>
</svg>
